<svg width="12" height="12" viewBox="0 0 12 12" fill="none" xmlns="http://www.w3.org/2000/svg">
<rect x="0.538086" width="11.23" height="11.77" rx="1" fill="#610000" fill-opacity="0.9"/>
<path d="M2.38208 9.385C2.30967 9.385 2.26126 9.31043 2.29074 9.24429L5.3216 2.44429C5.33767 2.40823 5.37346 2.385 5.41294 2.385H6.8832C6.92264 2.385 6.95839 2.40818 6.97449 2.44418L10.0151 9.24418C10.0446 9.31033 9.99623 9.385 9.92377 9.385H8.44484C8.4044 9.385 8.36794 9.36064 8.35246 9.32327L5.8753 3.34327C5.84803 3.27743 5.89642 3.205 5.96769 3.205H6.30814C6.37947 3.205 6.42786 3.27754 6.40047 3.3434L3.91365 9.3234C3.89813 9.3607 3.86171 9.385 3.82131 9.385H2.38208ZM3.92892 7.885C3.86005 7.885 3.8118 7.81701 3.83452 7.752L4.19461 6.722C4.20863 6.68187 4.2465 6.655 4.289 6.655H7.74759C7.78984 6.655 7.82752 6.68154 7.84175 6.72132L8.21021 7.75132C8.23351 7.81645 8.18522 7.885 8.11605 7.885H3.92892Z" fill="white"/>
</svg>
