<svg width="12" height="12" viewBox="0 0 12 12" fill="none" xmlns="http://www.w3.org/2000/svg">
<rect x="0.538086" width="11.23" height="11.77" rx="1" fill="#610000" fill-opacity="0.9"/>
<path d="M2.53614 9.385C2.39131 9.385 2.2945 9.23586 2.35346 9.10358L5.29518 2.50358C5.32732 2.43146 5.39889 2.385 5.47785 2.385H6.81837C6.89725 2.385 6.96876 2.43136 7.00095 2.50336L9.95209 9.10336C10.0113 9.23566 9.91444 9.385 9.76952 9.385H8.51166C8.43077 9.385 8.35784 9.33627 8.32689 9.26154L5.93258 3.48154C5.87803 3.34985 5.97482 3.205 6.11736 3.205H6.15825C6.30091 3.205 6.3977 3.35008 6.34292 3.4818L3.93926 9.2618C3.90824 9.33639 3.83538 9.385 3.75459 9.385H2.53614ZM4.06982 7.885C3.93208 7.885 3.83556 7.74902 3.88102 7.619L4.17118 6.789C4.19924 6.70875 4.27496 6.655 4.35998 6.655H7.67716C7.76165 6.655 7.83702 6.70809 7.86547 6.78764L8.16239 7.61764C8.20898 7.7479 8.11242 7.885 7.97407 7.885H4.06982Z" fill="white"/>
</svg>
