<svg width="12" height="12" viewBox="0 0 12 12" fill="none" xmlns="http://www.w3.org/2000/svg">
<rect width="11.23" height="11.77" rx="1" fill="#0B6100" fill-opacity="0.9"/>
<path d="M4.47021 5.39525C4.47021 5.28479 4.55976 5.19525 4.67021 5.19525H7.63021C7.74067 5.19525 7.83021 5.28479 7.83021 5.39525V6.61534C7.83021 6.72579 7.74067 6.81534 7.63021 6.81534H4.67021C4.55976 6.81534 4.47021 6.72579 4.47021 6.61534V5.39525ZM4.59021 9.185C4.59021 9.29546 4.50067 9.385 4.39021 9.385H3.17022C3.05976 9.385 2.97021 9.29546 2.97021 9.185V2.585C2.97021 2.47454 3.05976 2.385 3.17021 2.385H8.06022C8.17067 2.385 8.26022 2.47454 8.26022 2.585V3.81977C8.26022 3.93023 8.17067 4.01977 8.06022 4.01977H4.79021C4.67976 4.01977 4.59021 4.10931 4.59021 4.21977V9.185Z" fill="white"/>
</svg>
