<svg width="12" height="12" viewBox="0 0 12 12" fill="none" xmlns="http://www.w3.org/2000/svg">
<rect width="11.23" height="11.77" rx="1" fill="white" fill-opacity="0.9"/>
<path d="M3.12842 9.19192V3.0409H5.65032C6.15471 3.0409 6.58816 3.1317 6.95068 3.3133C7.31846 3.49491 7.60217 3.75852 7.80183 4.10415C8.00148 4.44392 8.1013 4.84813 8.1013 5.31678C8.1013 5.77957 8.00148 6.18085 7.80183 6.52062C7.60217 6.86039 7.31846 7.12401 6.95068 7.31147C6.58816 7.49307 6.15471 7.58387 5.65032 7.58387H3.99532L4.68885 6.82817V8.50542L3.12842 9.19192ZM4.68885 7.0127L3.99532 6.21307H5.55575C5.8815 6.21307 6.12318 6.13399 6.2808 5.97582C6.44367 5.81765 6.52511 5.59797 6.52511 5.31678C6.52511 5.02973 6.44367 4.80712 6.2808 4.64895C6.12318 4.49079 5.8815 4.4117 5.55575 4.4117H3.99532L4.68885 3.61207V7.0127Z" fill="black"/>
</svg>
