<svg width="12" height="12" viewBox="0 0 12 12" fill="none" xmlns="http://www.w3.org/2000/svg">
<rect width="11.23" height="11.77" rx="1" fill="white" fill-opacity="0.9"/>
<path d="M2.78008 9.385C2.66962 9.385 2.58008 9.29546 2.58008 9.185V2.585C2.58008 2.47454 2.66962 2.385 2.78008 2.385H5.61008C6.23674 2.385 6.77675 2.48833 7.23008 2.695C7.68341 2.895 8.03341 3.185 8.28008 3.565C8.52675 3.945 8.65008 4.39833 8.65008 4.925C8.65008 5.445 8.52675 5.895 8.28008 6.275C8.03341 6.655 7.68341 6.94833 7.23008 7.155C6.77675 7.355 6.23674 7.455 5.61008 7.455H3.95825C3.78073 7.455 3.6912 7.24094 3.81586 7.11456L3.85768 7.07215C3.98327 6.94482 4.20008 7.03375 4.20008 7.21259V9.185C4.20008 9.29546 4.11054 9.385 4.00008 9.385H2.78008ZM4.20008 6.39828C4.20008 6.57972 3.97791 6.66741 3.85399 6.53488L3.79482 6.4716C3.67532 6.3438 3.76594 6.135 3.9409 6.135H5.52008C6.02008 6.135 6.39341 6.02833 6.64008 5.815C6.88675 5.60167 7.01008 5.305 7.01008 4.925C7.01008 4.53833 6.88675 4.23833 6.64008 4.025C6.39341 3.81167 6.02008 3.705 5.52008 3.705H3.9409C3.76594 3.705 3.67532 3.4962 3.79482 3.3684L3.85399 3.30512C3.97791 3.1726 4.20008 3.26028 4.20008 3.44172V6.39828Z" fill="black"/>
</svg>
