<svg width="12" height="12" viewBox="0 0 12 12" fill="none" xmlns="http://www.w3.org/2000/svg">
<rect x="0.767578" y="0.232826" width="11.2323" height="11.7672" rx="1" fill="black" fill-opacity="0.9"/>
<path d="M3.94114 8.79027C3.96584 8.8759 4.0442 8.93486 4.13332 8.93486H5.33868C5.42376 8.93486 5.49953 8.88103 5.52754 8.80069L6.38028 6.35415C6.38237 6.34814 6.38804 6.34412 6.3944 6.34412V6.34412C6.40076 6.34412 6.40643 6.34814 6.40852 6.35415L7.26127 8.80069C7.28927 8.88103 7.36504 8.93486 7.45012 8.93486H8.63941C8.72859 8.93486 8.807 8.87582 8.83163 8.79011L10.3368 3.55321C10.3735 3.42538 10.2776 3.29796 10.1446 3.29796H8.93719C8.84713 3.29796 8.76818 3.35815 8.74433 3.44499L7.89594 6.53338C7.89381 6.54114 7.88676 6.54652 7.87871 6.54652V6.54652C7.87099 6.54652 7.86414 6.54156 7.86173 6.53423L7.05579 4.08318C7.02881 4.00111 6.95219 3.94565 6.8658 3.94565H5.91255C5.82608 3.94565 5.74941 4.00122 5.72249 4.0834L4.91643 6.54436C4.91403 6.55169 4.90719 6.55664 4.89949 6.55664V6.55664C4.89144 6.55664 4.88439 6.55124 4.88228 6.54347L4.04407 3.44572C4.02047 3.35852 3.94135 3.29796 3.85101 3.29796H2.62324C2.49016 3.29796 2.3942 3.42551 2.43107 3.55338L3.94114 8.79027Z" fill="white"/>
</svg>
