<svg width="12" height="12" viewBox="0 0 12 12" fill="none" xmlns="http://www.w3.org/2000/svg">
<rect x="0.767578" y="0.232826" width="11.2323" height="11.7672" rx="1" fill="black" fill-opacity="0.9"/>
<path d="M3.96199 8.86257C3.97434 8.90538 4.01352 8.93486 4.05808 8.93486H5.40972C5.45227 8.93486 5.49015 8.90795 5.50415 8.86778L6.38028 6.35415C6.38237 6.34814 6.38804 6.34412 6.3944 6.34412V6.34412C6.40076 6.34412 6.40643 6.34814 6.40852 6.35415L7.28465 8.86778C7.29865 8.90795 7.33654 8.93486 7.37908 8.93486H8.71472C8.75931 8.93486 8.79851 8.90534 8.81083 8.86248L10.3735 3.42559C10.3918 3.36167 10.3438 3.29796 10.2773 3.29796H8.86095C8.81593 3.29796 8.77645 3.32806 8.76452 3.37148L7.89594 6.53338C7.89381 6.54114 7.88676 6.54652 7.87871 6.54652V6.54652C7.87099 6.54652 7.86414 6.54156 7.86173 6.53423L7.03318 4.01441C7.01969 3.97338 6.98138 3.94565 6.93819 3.94565H5.84008C5.79685 3.94565 5.75851 3.97344 5.74505 4.01452L4.91643 6.54436C4.91403 6.55169 4.90719 6.55664 4.89949 6.55664V6.55664C4.89144 6.55664 4.88439 6.55124 4.88228 6.54347L4.02408 3.37184C4.01228 3.32824 3.97272 3.29796 3.92755 3.29796H2.49033C2.42379 3.29796 2.37581 3.36174 2.39425 3.42567L3.96199 8.86257Z" fill="white"/>
</svg>
